#!OML:ASF F:\VICON\USERDATA\INSTALL\rory3\rory3.ASF
:FULLY-SPECIFIED
:DEGREES
46
root -0.2733524320897831 16.833167778334676 14.206212154498207 3.383435415284027 -2.9798392985909192 -5.370381925619264
lfemur -29.47474388935829 8.615981217339183 -9.337007554228961
ltibia 112.91975043702325
lfoot 4.192111346923237 -8.051791707359236
ltoes -0.7905242721505363
rfemur -19.228662145237998 7.374413551365521 36.60986533670949
rtibia 57.31884015477164
rfoot -28.362792153326073 -18.784496104326013
rtoes -4.152545175611156
lowerback 18.2603655882635 0.41517550591811186 3.839511256036783
upperback -0.1415650313051558 1.5939931610690947 3.1298079798454363
thorax -10.256571991864117 0.6577308054610952 0.6007852410475494
lowerneck -21.341622344120935 -3.921220859619063 -1.7228743863275873
upperneck 11.951169455029827 -5.192574082577305 2.1688084867785786
head 7.269237746653746 -2.3457321237891624 0.3628807941001927
lclavicle -1.2506109864573523e-15 -1.0343222261873915e-15
lhumerus -51.769980095760666 -11.176881842807258 97.36257303190663
lradius 104.0120266290919
lwrist 34.738437603356985
lhand -24.36459385767147 3.2192037244804723
lfingers 7.125020000000056
lthumb 2.12464392113142 33.12631365394958
rclavicle -1.2506109864573523e-15 -1.0343222261873915e-15
rhumerus -39.54948834800991 11.285065931370138 -97.21175089181514
rradius 108.4618023681553
rwrist -17.44643180286705
rhand -20.089075134894735 33.22735117593527
rfingers 7.125020000000056
rthumb 6.2532154853624125 9.010773457177777
47
root -0.25637022941616255 16.91481179659149 15.137732972643615 3.75925941183154 -1.856829692358844 -5.411357650014919
lfemur -34.46412161525669 8.202179193729622 -9.705636376575903
ltibia 112.8197870709195
lfoot 1.7053881994184077 -6.680926309878238
ltoes -1.8576458000748586
rfemur -15.338820408167182 6.90925685964136 36.88806159935254
rtibia 55.7619945355103
rfoot -28.628068862017194 -18.9703227553219
rtoes -9.007110228328115
lowerback 17.977828434816495 0.6319068332635912 4.162397906642131
upperback -0.2164120935692222 1.9289797315838724 3.01404667134976
thorax -10.14360335647074 0.7985865407171486 0.26286083972433105
lowerneck -21.329790868798007 -4.233334165595823 -1.7860884564995487
upperneck 11.870006576473866 -5.6347794786532965 2.4885668400445873
head 7.26638232384813 -2.5375926807294085 0.42844601366817087
lclavicle -9.781439483828517e-16 -8.233502052372916e-16
lhumerus -53.69573582807257 -11.536073234520277 97.73163814234418
lradius 104.97126033860017
lwrist 35.10369830711065
lhand -23.881608945455483 3.3870633122410077
lfingers 7.125020000000057
lthumb 2.5909282987890263 33.28116620187202
rclavicle -9.781439483828517e-16 -8.233502052372916e-16
rhumerus -36.95974836573977 11.803047235824458 -96.63895187046622
rradius 109.83849801487713
rwrist -17.30443602106746
rhand -20.007530797138752 33.60823078840566
rfingers 7.125020000000057
rthumb 6.332125905189838 9.042548970082903
48
root -0.24428167220064445 17.05375139091176 16.191051418575935 3.9792015346269345 -0.712380820835546 -5.3231329017423175
lfemur -38.5326541434319 7.2347315384477895 -10.626742729101027
ltibia 110.64385865150338
lfoot -0.18121831918223696 -5.734810957685064
ltoes -3.4498374379657704
rfemur -11.240771408093535 6.016627357430107 36.85844501037094
rtibia 52.98107107964086
rfoot -26.595025880793578 -17.628239571010177
rtoes -12.627001162531137
lowerback 17.58803227992192 0.8412612418778298 4.464602683888496
upperback -0.3335045012064681 2.2381810089914773 2.81872132549407
thorax -10.03077359498565 0.9266503129394481 -0.15008173468017172
lowerneck -21.182888858677334 -4.55312347944979 -1.866191410891388
upperneck 11.938086230482298 -6.078058562756986 2.73176236560366
head 7.287538734404107 -2.7376543556141026 0.47236524173694866
lclavicle -8.056428100032881e-16 -6.89782070884745e-16
lhumerus -55.72274555262322 -11.723041476000386 98.0199744223822
lradius 106.01605958710178
lwrist 35.49133049921064
lhand -23.460979994625845 3.320757263074679
lfingers 7.125020000000057
lthumb 2.9970077374178805 33.202313763509196
rclavicle -8.056428100032881e-16 -6.89782070884745e-16
rhumerus -35.07596394011627 12.199190391784096 -96.11120787738741
rradius 111.40250720123859
rwrist -17.326015320987285
rhand -19.963458511175723 33.91390997823326
rfingers 7.125020000000057
rthumb 6.37496046555628 9.322223685625355
49
root -0.2418652533721637 17.247074493502325 17.289503242407804 4.074686423111425 0.4660856321533351 -5.165217183184323
lfemur -41.558305287407165 5.75789747802598 -11.869207362275503
ltibia 106.4280378076249
lfoot -1.4629518900237013 -5.188448551202063
ltoes -5.695762303143425
rfemur -6.903583638517082 4.883130020109081 36.58307546475589
rtibia 49.35042632710171
rfoot -22.120260196832945 -15.289707349150596
rtoes -14.622161936277182
lowerback 17.10048639197336 1.0281725366289818 4.8260308700692045
upperback -0.4907014048760807 2.515794286089848 2.5771759005423576
thorax -9.912545031470824 1.0366689841222847 -0.6371683811754673
lowerneck -20.895932650450522 -4.867169447175307 -1.9398903208244351
upperneck 12.156321643240107 -6.510945976434458 2.89864047064726
head 7.3316249726100295 -2.939910671356267 0.49257972511585013
lclavicle -6.754012609561315e-16 -5.889356607945904e-16
lhumerus -57.78711108881983 -11.598722801327359 98.20147476075394
lradius 107.20019424311046
lwrist 35.85897541542643
lhand -23.151672150557104 3.220704912368669
lfingers 7.125020000000058
lthumb 3.2956182940072267 33.0926666636913
rclavicle -6.754012609561315e-16 -5.889356607945904e-16
rhumerus -33.826029161961614 12.608674914557174 -95.6857811507104
rradius 113.20757405206732
rwrist -17.482498740465225
rhand -19.9216409361475 34.08317229449881
rfingers 7.125020000000058
rthumb 6.4156377901190815 9.973710879149463
